<svg width="380" height="210" viewBox="0 0 380 210" fill="none" xmlns="http://www.w3.org/2000/svg">
<g filter="url(#filter0_d_0_677)">
<rect x="60" y="57" width="260" height="90" rx="12" fill="white"/>
<rect x="60.5" y="57.5" width="259" height="89" rx="11.5" stroke="#F9F9F7"/>
</g>
<path d="M150.341 96.9778V107.794H152.77C153.39 107.783 154.002 107.635 154.569 107.358C155.137 107.081 155.648 106.68 156.074 106.179C156.947 105.153 157.425 103.788 157.406 102.377C157.424 101.676 157.318 100.977 157.092 100.322C156.867 99.6665 156.527 99.067 156.093 98.5579C155.665 98.0565 155.15 97.6576 154.579 97.3856C154.007 97.1136 153.392 96.9744 152.77 96.9764H150.342L150.341 96.9778ZM152.77 93.5866C157.298 93.5866 160.723 97.4811 160.723 102.377C160.723 107.272 157.298 111.189 152.77 111.189H147.412C147.361 111.188 147.31 111.176 147.263 111.154C147.216 111.132 147.174 111.099 147.138 111.059C147.103 111.018 147.075 110.97 147.056 110.917C147.037 110.865 147.027 110.808 147.028 110.752V94.0418C147.028 93.7997 147.2 93.6031 147.412 93.6031L152.77 93.5866ZM172.395 108.17C174.451 108.177 176.308 106.773 177.1 104.613C177.488 103.557 177.591 102.4 177.398 101.28C177.205 100.16 176.724 99.1268 176.012 98.3048C175.313 97.4964 174.41 96.9423 173.421 96.7159C172.432 96.4896 171.405 96.6015 170.474 97.0369C168.574 97.928 167.333 100.036 167.329 102.377C167.329 105.567 169.592 108.155 172.395 108.17ZM172.396 93.1878C177.162 93.1878 180.805 97.3573 180.805 102.377C180.805 107.396 177.162 111.566 172.395 111.566C167.629 111.566 164.016 107.417 164.016 102.377C164.016 97.3367 167.661 93.1878 172.396 93.1878ZM192.382 108.17C195.186 108.162 197.454 105.571 197.452 102.381C197.448 99.1877 195.175 96.6024 192.373 96.601C189.568 96.601 187.293 99.185 187.29 102.377C187.29 103.914 187.826 105.388 188.781 106.475C189.249 107.01 189.808 107.436 190.426 107.727C191.045 108.019 191.711 108.169 192.382 108.17ZM192.381 93.1878C197.132 93.1878 200.776 97.3367 200.776 102.377C200.776 107.417 197.117 111.566 192.381 111.566C187.646 111.566 183.972 107.417 183.972 102.377C183.972 97.3367 187.615 93.1878 192.381 93.1878ZM211.888 96.9778H208.463V101.633H211.888C212.159 101.646 212.429 101.598 212.682 101.491C212.935 101.383 213.166 101.22 213.36 101.01C213.756 100.584 213.982 99.9922 213.987 99.3706C213.997 99.0553 213.949 98.7409 213.847 98.4465C213.745 98.152 213.59 97.8835 213.392 97.6571C213.198 97.4343 212.964 97.2591 212.705 97.1428C212.446 97.0265 212.168 96.9717 211.888 96.9819V96.9778ZM205.149 94.0418C205.149 93.7997 205.322 93.6031 205.534 93.6031H211.984C215.059 93.6031 217.284 96.1678 217.284 99.3885C217.307 101.567 216.235 103.568 214.525 104.543L217.499 110.529C217.54 110.598 217.563 110.678 217.566 110.76C217.569 110.843 217.551 110.925 217.514 110.997C217.478 111.067 217.425 111.125 217.36 111.163C217.296 111.201 217.223 111.218 217.15 111.211H214.539C214.467 111.212 214.396 111.191 214.334 111.149C214.272 111.107 214.222 111.046 214.19 110.974L211.323 105.05H208.45V110.738C208.451 110.795 208.442 110.851 208.423 110.904C208.404 110.957 208.376 111.005 208.34 111.046C208.305 111.087 208.262 111.119 208.215 111.142C208.168 111.164 208.118 111.176 208.066 111.177H205.552C205.5 111.176 205.45 111.164 205.403 111.142C205.356 111.119 205.313 111.087 205.277 111.046C205.242 111.005 205.214 110.957 205.195 110.904C205.176 110.851 205.167 110.795 205.167 110.738L205.15 94.0431L205.149 94.0418ZM225.921 97.0603V107.878H228.349C228.969 107.868 229.581 107.721 230.148 107.445C230.716 107.168 231.228 106.768 231.654 106.269C232.528 105.243 233.007 103.88 232.989 102.469C233.008 101.767 232.903 101.067 232.678 100.411C232.453 99.7542 232.114 99.1535 231.679 98.6431C231.251 98.1409 230.735 97.7415 230.162 97.4695C229.59 97.1975 228.973 97.0587 228.35 97.0617L225.921 97.0603ZM228.349 93.665C232.877 93.665 236.302 97.5636 236.302 102.469C236.302 107.374 232.877 111.273 228.349 111.273H223.007C222.956 111.272 222.905 111.26 222.858 111.238C222.811 111.215 222.769 111.183 222.733 111.142C222.697 111.101 222.669 111.053 222.65 111C222.631 110.947 222.622 110.891 222.623 110.834V94.1256C222.623 93.8822 222.795 93.6856 223.007 93.6856L228.349 93.665ZM246.407 97.9666L244.527 103.751H248.282L246.407 97.9666ZM243.425 107.019L242.194 110.87C242.17 110.961 242.119 111.039 242.049 111.094C241.98 111.149 241.896 111.177 241.81 111.173H239.142C239.074 111.18 239.006 111.166 238.944 111.134C238.882 111.101 238.829 111.051 238.791 110.988C238.752 110.925 238.729 110.851 238.723 110.774C238.717 110.698 238.729 110.621 238.758 110.551L244.524 93.8575C244.55 93.7694 244.602 93.6936 244.672 93.6414C244.741 93.5893 244.824 93.5638 244.908 93.5687H247.893C247.977 93.5635 248.06 93.5889 248.13 93.641C248.199 93.6932 248.252 93.7692 248.279 93.8575L254.044 110.551C254.073 110.621 254.085 110.698 254.079 110.775C254.072 110.851 254.049 110.925 254.009 110.988C253.971 111.051 253.918 111.101 253.857 111.133C253.795 111.165 253.727 111.178 253.659 111.171H250.992C250.906 111.175 250.822 111.148 250.753 111.093C250.683 111.038 250.632 110.959 250.608 110.869L249.377 107.018H243.425V107.019ZM257.138 98.342C257.138 95.5778 259.236 93.1878 262.55 93.1878C264.335 93.1435 266.063 93.8846 267.357 95.2492C267.396 95.2906 267.428 95.3404 267.449 95.3958C267.471 95.4511 267.482 95.5107 267.482 95.571C267.482 95.6312 267.471 95.6908 267.449 95.7462C267.428 95.8015 267.396 95.8514 267.357 95.8928L265.879 97.5636C265.844 97.6042 265.801 97.6365 265.754 97.6585C265.708 97.6806 265.657 97.6919 265.606 97.6919C265.556 97.6919 265.505 97.6806 265.458 97.6585C265.412 97.6365 265.369 97.6042 265.334 97.5636C264.638 96.8393 263.723 96.429 262.769 96.4126C261.444 96.4126 260.464 97.2886 260.464 98.2993C260.464 101.567 268.297 99.6814 268.297 105.969C268.293 109.155 266.179 111.566 262.44 111.566C261.402 111.578 260.372 111.358 259.412 110.919C258.452 110.48 257.581 109.831 256.851 109.011C256.812 108.969 256.781 108.919 256.759 108.864C256.738 108.809 256.727 108.749 256.727 108.689C256.727 108.629 256.738 108.569 256.759 108.514C256.781 108.458 256.812 108.409 256.851 108.367L258.281 106.739C258.317 106.696 258.36 106.662 258.408 106.639C258.456 106.616 258.507 106.604 258.56 106.604C258.612 106.604 258.664 106.616 258.712 106.639C258.76 106.662 258.803 106.696 258.839 106.739C259.738 107.729 260.95 108.291 262.217 108.307C263.873 108.307 264.965 107.3 264.965 106.039C264.965 102.77 257.135 104.657 257.135 98.3681M282.502 94.0198V100.626H275.872V94.0198C275.872 93.963 275.863 93.9067 275.844 93.8541C275.825 93.8014 275.797 93.7534 275.761 93.7128C275.726 93.6722 275.683 93.6398 275.636 93.6174C275.589 93.595 275.539 93.5832 275.488 93.5824H272.973C272.922 93.5832 272.871 93.595 272.824 93.6174C272.777 93.6398 272.735 93.6722 272.699 93.7128C272.663 93.7534 272.635 93.8014 272.616 93.8541C272.597 93.9067 272.588 93.963 272.589 94.0198V110.71C272.589 110.952 272.762 111.149 272.973 111.149H275.488C275.698 111.149 275.872 110.952 275.872 110.71V104H282.497V110.71C282.497 110.952 282.67 111.149 282.881 111.149H285.396C285.608 111.149 285.78 110.952 285.78 110.71V94.0198C285.781 93.963 285.771 93.9067 285.752 93.8541C285.733 93.8014 285.705 93.7534 285.67 93.7128C285.634 93.6722 285.591 93.6398 285.544 93.6174C285.497 93.595 285.447 93.5832 285.396 93.5824H282.881C282.779 93.5853 282.682 93.6328 282.611 93.7147C282.54 93.7966 282.501 93.9062 282.502 94.0198ZM132.911 95.8103C131.167 92.221 127.754 89.9863 124.042 90.0001H95.9597C95.77 90.0009 95.5848 90.0637 95.4271 90.1806C95.2693 90.2975 95.1461 90.4633 95.0726 90.6574C95.0003 90.8503 94.9814 91.0627 95.0185 91.2675C95.0556 91.4723 95.1469 91.6602 95.2808 91.8071L101.398 98.5455C101.938 99.1423 102.674 99.4765 103.44 99.4765H123.237C124.648 99.46 125.801 100.7 125.816 102.245C125.831 103.789 124.7 105.054 123.289 105.069H109.64C109.451 105.07 109.265 105.132 109.107 105.248C108.949 105.364 108.825 105.53 108.751 105.724C108.678 105.917 108.658 106.13 108.695 106.335C108.732 106.541 108.824 106.729 108.958 106.876L115.079 113.62C115.622 114.217 116.356 114.551 117.121 114.55H123.294C131.325 114.55 137.398 105.144 132.911 95.8061" fill="#FF3008"/>
<defs>
<filter id="filter0_d_0_677" x="0.425537" y="0.40426" width="379.149" height="209.149" filterUnits="userSpaceOnUse" color-interpolation-filters="sRGB">
<feFlood flood-opacity="0" result="BackgroundImageFix"/>
<feColorMatrix in="SourceAlpha" type="matrix" values="0 0 0 0 0 0 0 0 0 0 0 0 0 0 0 0 0 0 127 0" result="hardAlpha"/>
<feOffset dy="2.97872"/>
<feGaussianBlur stdDeviation="29.7872"/>
<feComposite in2="hardAlpha" operator="out"/>
<feColorMatrix type="matrix" values="0 0 0 0 0 0 0 0 0 0 0 0 0 0 0 0 0 0 0.08 0"/>
<feBlend mode="normal" in2="BackgroundImageFix" result="effect1_dropShadow_0_677"/>
<feBlend mode="normal" in="SourceGraphic" in2="effect1_dropShadow_0_677" result="shape"/>
</filter>
</defs>
</svg>
