<svg width="380" height="210" viewBox="0 0 380 210" fill="none" xmlns="http://www.w3.org/2000/svg">
<g filter="url(#filter0_d_0_680)">
<rect x="60" y="57" width="260" height="90" rx="12" fill="white"/>
<rect x="60.5" y="57.5" width="259" height="89" rx="11.5" stroke="#F9F9F7"/>
</g>
<path d="M141.003 96.3331H143.382V94.0476C143.382 91.287 144.908 89.4766 147.953 89.4766L149.48 89.7645V92.5251L147.86 92.2372C146.906 92.2372 146.528 92.8131 146.528 93.7633V96.3331H149.573V99.0938H146.525V110.521H143.48V99.0938H141.003V96.3331ZM157.286 96.0488C161.192 96.0488 164.715 99.0938 164.715 103.478C164.715 107.862 161.289 110.903 157.286 110.903C153.284 110.903 149.861 107.858 149.861 103.478C149.861 99.0002 153.381 96.0488 157.286 96.0488ZM157.286 108.142C160.144 108.142 161.667 106.048 161.667 103.478C161.667 100.908 160.144 98.8094 157.286 98.8094C154.429 98.8094 152.906 100.904 152.906 103.478C152.906 105.95 154.432 108.142 157.286 108.142ZM173.382 96.0488C177.287 96.0488 180.807 99.0938 180.807 103.478C180.807 107.862 177.381 110.903 173.382 110.903C169.383 110.903 165.953 107.858 165.953 103.478C166.047 99.0002 169.477 96.0488 173.382 96.0488ZM173.382 108.142C176.236 108.142 177.762 106.048 177.762 103.478C177.762 100.908 176.236 98.8094 173.382 98.8094C170.528 98.8094 169.002 100.904 169.002 103.478C169.002 105.95 170.524 108.142 173.382 108.142ZM196.619 110.521H193.855L193.567 109.287L193.38 109.096L193.189 109.287C192.235 110.237 190.81 110.809 189.284 110.809C185.379 110.809 182.049 107.761 182.049 103.38C182.049 99.0002 185.379 95.9516 189.284 95.9516C190.81 95.9516 192.332 96.5275 193.189 97.4777L193.38 97.6685L193.57 97.4777V89.5737H196.619V110.521ZM189.474 98.7159C186.617 98.7159 185.094 100.811 185.094 103.38C185.094 105.95 186.617 108.049 189.474 108.049C192.048 108.049 193.855 105.95 193.855 103.38C193.855 100.904 192.048 98.7159 189.474 98.7159ZM199.664 96.3331H202.428L202.713 97.5713L202.903 97.762L203.094 97.5713C204.044 96.6211 205.473 96.0488 206.999 96.0488C210.901 96.0488 214.234 99.0938 214.234 103.478C214.234 107.862 210.901 110.903 206.999 110.903C205.473 110.903 203.951 110.334 203.094 109.38L202.903 109.19L202.713 109.38V117H199.761V96.3331H199.664ZM206.711 108.142C209.569 108.142 211.092 106.048 211.092 103.478C211.092 100.908 209.569 98.8094 206.711 98.8094C204.141 98.8094 202.331 100.904 202.331 103.478C202.331 105.95 204.141 108.142 206.711 108.142ZM221.76 101.667H224.232V101.001C224.232 99.2845 223.092 98.5251 221.472 98.5251C220.14 98.5251 219.284 99.191 218.808 100.429L216.141 99.8568C216.71 97.4777 218.805 95.9516 221.569 95.9516C225.377 95.9516 227.281 97.8592 227.281 101.57V110.428H224.805L224.517 108.52C223.567 109.953 222.044 110.619 220.043 110.619C217.473 110.619 215.663 109.096 215.663 106.238C215.569 103.478 218.045 101.667 221.76 101.667ZM220.428 108.142C221.378 108.142 222.328 107.854 222.998 107.188C223.757 106.523 224.139 105.666 224.139 104.525V104.237H221.569C219.759 104.237 218.618 105.094 218.618 106.429C218.618 107.379 219.284 108.142 220.424 108.142H220.428ZM229.948 96.3331H232.709L232.997 97.5713L233.187 97.762L233.375 97.5713C233.95 96.6211 235.473 96.0488 236.711 96.0488C240.328 96.0488 242.423 98.4279 242.423 101.761V110.521H239.375V101.761C239.281 99.8568 238.331 98.7159 236.33 98.7159C234.519 98.7159 233.09 100.145 232.997 101.955V110.521H229.948V96.3331ZM258.706 110.521H255.946L255.658 109.287L255.47 109.096L255.28 109.287C254.326 110.237 252.897 110.809 251.374 110.809C247.469 110.809 244.14 107.761 244.14 103.38C244.14 99.0002 247.469 95.9516 251.374 95.9516C252.897 95.9516 254.423 96.5275 255.28 97.4777L255.47 97.6685L255.661 97.4777V89.5737H258.706V110.521ZM251.659 98.7159C248.805 98.7159 247.279 100.811 247.279 103.38C247.279 105.95 248.805 108.049 251.659 108.049C254.232 108.049 256.043 105.95 256.043 103.38C256.043 100.904 254.232 98.7159 251.659 98.7159ZM267.373 101.667H269.849V101.001C269.849 99.2845 268.708 98.5251 267.089 98.5251C265.757 98.5251 264.897 99.191 264.422 100.429L261.758 99.8568C262.327 97.4777 264.422 95.9516 267.182 95.9516C270.994 95.9516 272.898 97.8592 272.898 101.57V110.428H270.422L270.134 108.52C269.184 109.953 267.658 110.619 265.66 110.619C263.086 110.619 261.28 109.096 261.28 106.238C261.182 103.478 263.565 101.667 267.373 101.667ZM266.041 108.142C266.992 108.142 267.945 107.854 268.611 107.188C269.374 106.523 269.756 105.666 269.756 104.525V104.237H267.182C265.372 104.237 264.231 105.094 264.231 106.429C264.231 107.379 264.897 108.142 266.041 108.142Z" fill="#D70F64"/>
<path d="M119.94 106.047C121.657 106.047 123.086 104.809 123.086 103.286H116.798C116.798 104.809 118.126 106.047 119.94 106.047Z" fill="#D70F64"/>
<path d="M130.521 92.9066C131.285 92.3343 131.666 91.3805 131.666 90.3331C131.666 88.4291 130.144 87.0002 128.236 87.0002C127.001 87.0002 125.95 87.5725 125.382 88.5263C123.661 87.6905 121.77 87.2666 119.857 87.2881C117.948 87.2926 116.064 87.7152 114.336 88.5263C113.76 87.5689 112.716 87.0002 111.478 87.0002C110.582 86.9906 109.719 87.3355 109.076 87.9599C108.433 88.5842 108.064 89.4373 108.048 90.3331C108.056 90.817 108.161 91.2943 108.358 91.7364C108.555 92.1786 108.838 92.5766 109.192 92.9066C107.746 95.0055 106.981 97.4986 107 100.047C107.001 103.457 108.356 106.727 110.767 109.139C113.178 111.55 116.447 112.906 119.857 112.908C123.266 112.906 126.535 111.551 128.946 109.14C131.356 106.729 132.712 103.46 132.713 100.051C132.713 97.3876 131.95 94.9078 130.521 92.9102V92.9066ZM119.954 111.857C113.472 111.857 108.145 106.523 108.145 100.051C108.145 97.5712 108.904 95.2857 110.143 93.3817C111.295 91.6393 112.912 90.2541 114.811 89.3829C116.333 88.6199 118.144 88.2383 119.95 88.2383C121.757 88.2383 123.568 88.6199 125.09 89.3829C126.998 90.3331 128.52 91.6684 129.758 93.3817C130.997 95.2893 131.756 97.5712 131.756 100.047C131.756 106.526 126.426 111.853 119.95 111.853L119.954 111.857Z" fill="#D70F64"/>
<path d="M119.937 102.524C120.132 102.618 122.133 101.858 122.133 100.904C122.133 100.332 120.513 100.238 119.937 100.238C119.362 100.238 117.749 100.332 117.749 100.904C117.655 101.858 119.747 102.618 119.937 102.524ZM127.366 94.5228C126.225 93.7634 123.749 93.3819 122.795 94.62C122.795 94.62 121.557 95.9518 122.795 97.2835C124.033 98.6152 124.89 99.9541 125.178 101.002C125.466 102.142 125.937 102.524 126.798 102.524C127.658 102.524 129.367 101.192 129.652 99.0003C129.724 98.1154 129.548 97.2279 129.145 96.4371C128.741 95.6464 128.125 94.9835 127.366 94.5228ZM124.796 97.2871C124.415 97.2871 124.131 96.9991 124.131 96.6212C124.131 96.2433 124.418 95.9518 124.796 95.9518C125.174 95.9518 125.462 96.2397 125.462 96.6212C125.462 97.0027 125.174 97.2871 124.796 97.2871ZM116.986 94.62C116.036 93.3819 113.56 93.7634 112.415 94.5228C111.27 95.2823 109.939 96.8084 110.129 99.0003C110.32 101.192 112.037 102.524 112.987 102.524C113.844 102.524 114.319 102.049 114.607 101.002C114.895 99.8569 115.845 98.6188 116.986 97.2871C118.224 95.8582 116.986 94.62 116.986 94.62ZM115.179 97.2835C114.798 97.2835 114.51 96.9991 114.51 96.6212C114.51 96.2433 114.798 95.9518 115.179 95.9518C115.561 95.9518 115.845 96.2397 115.845 96.6212C115.845 97.0027 115.557 97.2835 115.179 97.2835Z" fill="#D70F64"/>
<defs>
<filter id="filter0_d_0_680" x="0.425537" y="0.40426" width="379.149" height="209.149" filterUnits="userSpaceOnUse" color-interpolation-filters="sRGB">
<feFlood flood-opacity="0" result="BackgroundImageFix"/>
<feColorMatrix in="SourceAlpha" type="matrix" values="0 0 0 0 0 0 0 0 0 0 0 0 0 0 0 0 0 0 127 0" result="hardAlpha"/>
<feOffset dy="2.97872"/>
<feGaussianBlur stdDeviation="29.7872"/>
<feComposite in2="hardAlpha" operator="out"/>
<feColorMatrix type="matrix" values="0 0 0 0 0 0 0 0 0 0 0 0 0 0 0 0 0 0 0.08 0"/>
<feBlend mode="normal" in2="BackgroundImageFix" result="effect1_dropShadow_0_680"/>
<feBlend mode="normal" in="SourceGraphic" in2="effect1_dropShadow_0_680" result="shape"/>
</filter>
</defs>
</svg>
