<svg width="281" height="55" viewBox="0 0 281 55" fill="none" xmlns="http://www.w3.org/2000/svg">
<g clip-path="url(#clip0_10_2266)">
<path d="M48.1696 0.803952C47.8611 0.62592 47.4932 0.57519 47.1467 0.662861C46.8001 0.750533 46.503 0.969467 46.3204 1.27175L36.649 17.3632C36.5994 17.4466 36.5594 17.5352 36.5296 17.6273C35.4475 18.0213 34.4375 18.5849 33.5389 19.296C30.6084 14.4065 25.2392 11.3277 19.3733 11.3277C10.3223 11.3277 2.95979 18.5484 2.93456 27.4318H0.801025L0.991795 28.9241C2.10195 37.5971 7.5481 45.1726 15.3789 49.1616V54.2827H35.5844C38.1456 54.2827 40.2293 52.2344 40.2293 49.7183V49.1623C48.0626 45.1714 53.5063 37.5959 54.6189 28.9241L54.8096 27.4306H50.9567C50.9389 22.8964 47.9783 19.0416 43.8601 17.5862L55.9266 6.18186C56.4632 5.67478 56.4804 4.83467 55.9623 4.30763C55.8395 4.18216 55.6927 4.08167 55.5304 4.0119C55.3681 3.94214 55.1933 3.90447 55.0162 3.90104C54.839 3.89762 54.6629 3.92851 54.4979 3.99195C54.3329 4.05539 54.1823 4.15013 54.0546 4.27077L40.6133 16.9764C40.4927 16.9715 40.3727 16.9582 40.2503 16.9582C40.1727 16.9582 40.0983 16.9691 40.0219 16.9703L48.6459 2.62016C48.7361 2.47019 48.7953 2.30425 48.8202 2.13181C48.845 1.95937 48.8351 1.78381 48.7908 1.61516C48.7466 1.4465 48.669 1.28806 48.5624 1.14887C48.4558 1.00968 48.3223 0.892478 48.1696 0.803952ZM19.3727 13.9804C24.5401 13.9804 29.2503 16.8374 31.593 21.3135C30.7389 22.4673 30.1333 23.78 29.8133 25.1714C28.7395 20.4764 24.4699 16.957 19.3727 16.957C13.4853 16.957 8.69579 21.652 8.67056 27.4312H5.63549C5.6601 20.011 11.8115 13.9804 19.3727 13.9804ZM19.3727 22.5936C16.6466 22.5936 14.4281 24.7604 14.4029 27.4312H11.3721C11.3973 23.1146 14.9746 19.6103 19.3727 19.6103C23.7721 19.6103 27.353 23.1146 27.3758 27.4312H24.3413C24.3173 24.7604 22.0989 22.5936 19.3727 22.5936ZM21.6386 27.4318H17.1069C17.1189 26.8488 17.363 26.2936 17.7867 25.8851C18.2104 25.4766 18.7802 25.2473 19.3739 25.2463C19.9674 25.2475 20.5368 25.4769 20.9601 25.8854C21.3834 26.2939 21.627 26.8491 21.6386 27.4318ZM51.6976 30.0845C50.1967 37.793 44.8743 44.3646 37.4976 47.5123H33.1746V50.1656H37.4687C37.3676 50.5819 37.1269 50.9526 36.7852 51.2183C36.4435 51.4839 36.0208 51.6289 35.585 51.63H18.0804V50.1656H23.1444V47.5123H18.113C10.7364 44.3664 5.41333 37.793 3.91118 30.0845H51.6976ZM37.985 27.4318C37.9969 26.849 38.2407 26.294 38.664 25.8855C39.0874 25.4771 39.6568 25.2476 40.2503 25.2463C40.8443 25.2468 41.4144 25.4759 41.8385 25.8845C42.2625 26.293 42.5066 26.8485 42.5186 27.4318H37.985ZM40.2503 19.6109C44.6515 19.6109 48.2336 23.1152 48.257 27.4318H45.2207C45.1961 24.761 42.977 22.5942 40.2503 22.5942C37.5241 22.5942 35.3075 24.761 35.2829 27.4318H32.2496C32.2743 23.1152 35.8515 19.6109 40.2503 19.6109Z" fill="#AD343E"/>
<path d="M39.6741 42.9139C39.8901 42.9139 40.1086 42.8637 40.3098 42.7568C41.9591 41.8897 43.4065 40.6947 44.5598 39.248C45.7131 37.8012 46.5469 36.1345 47.0082 34.3539C47.0524 34.1848 47.0622 34.0088 47.037 33.8361C47.0118 33.6633 46.9522 33.4971 46.8614 33.347C46.7707 33.1969 46.6507 33.0659 46.5083 32.9615C46.3659 32.8571 46.2039 32.7813 46.0316 32.7385C45.8593 32.6957 45.6801 32.6867 45.5043 32.7121C45.3285 32.7374 45.1595 32.7967 45.007 32.8863C44.8545 32.976 44.7215 33.0943 44.6157 33.2346C44.5099 33.3748 44.4334 33.5342 44.3904 33.7035C44.0221 35.1266 43.356 36.4588 42.4345 37.6151C41.5131 38.7714 40.3565 39.7265 39.0384 40.4196C38.7726 40.5585 38.5618 40.7808 38.4395 41.051C38.3172 41.3213 38.2905 41.6239 38.3636 41.9108C38.4367 42.1976 38.6054 42.4522 38.8429 42.634C39.0804 42.8158 39.373 42.9143 39.6741 42.9139Z" fill="#474747"/>
<path d="M36.4059 45.0064C37.2903 45.0064 38.0072 44.3023 38.0072 43.4337C38.0072 42.5652 37.2903 41.8611 36.4059 41.8611C35.5216 41.8611 34.8047 42.5652 34.8047 43.4337C34.8047 44.3023 35.5216 45.0064 36.4059 45.0064Z" fill="#474747"/>
</g>
<path d="M88.7226 13.8347C91.8515 13.8347 94.127 14.3467 95.5493 15.3707C96.9715 16.3662 97.6826 17.7173 97.6826 19.424C97.6826 20.9031 97.2133 22.24 96.2746 23.4347C95.3644 24.6293 94.1128 25.6391 92.5199 26.464C90.927 27.2604 89.1208 27.8151 87.1013 28.128C90.1164 28.3556 92.3208 29.0951 93.7146 30.3467C95.1368 31.5982 95.8479 33.0916 95.8479 34.8267C95.8479 36.3627 95.4781 37.6996 94.7386 38.8373C94.0275 39.9751 93.0461 40.928 91.7946 41.696C90.5715 42.464 89.135 43.0471 87.4853 43.4453C85.8355 43.8151 84.0861 44 82.2373 44C81.2701 44 80.2035 43.9858 79.0373 43.9573C77.8995 43.9004 76.4915 43.872 74.8133 43.872C74.1021 43.872 73.3626 43.8862 72.5946 43.9147C71.8266 43.9147 71.1013 43.9289 70.4186 43.9573C69.7359 43.9573 69.1528 43.9716 68.6693 44L68.8399 43.1467C69.807 43.0898 70.5608 42.976 71.1013 42.8053C71.6417 42.6347 72.0684 42.2933 72.3813 41.7813C72.6941 41.2693 72.9786 40.5013 73.2346 39.4773L78.8666 18.3147C79.0657 17.4613 79.1795 16.7787 79.2079 16.2667C79.2364 15.7262 79.0373 15.328 78.6106 15.072C78.2124 14.7876 77.4586 14.6453 76.3493 14.6453L76.5626 13.792C77.0461 13.8204 77.615 13.8489 78.2693 13.8773C78.9519 13.8773 79.6773 13.8916 80.4453 13.92C81.2133 13.92 81.9244 13.92 82.5786 13.92C83.8017 13.92 84.8826 13.9058 85.8213 13.8773C86.7884 13.8489 87.7555 13.8347 88.7226 13.8347ZM80.7439 28.6827L80.9146 27.9573H84.0719C85.6933 27.9573 87.0728 27.5449 88.2106 26.72C89.3768 25.8667 90.2586 24.7573 90.8559 23.392C91.4817 22.0267 91.7946 20.5902 91.7946 19.0827C91.7946 17.6604 91.5101 16.5653 90.9413 15.7973C90.4008 15.0293 89.4479 14.6453 88.0826 14.6453C87.087 14.6453 86.3759 14.8444 85.9493 15.2427C85.5226 15.6124 85.1528 16.4231 84.8399 17.6747L79.0799 39.4773C78.9093 40.1884 78.7955 40.8142 78.7386 41.3547C78.7101 41.8951 78.8524 42.3076 79.1653 42.592C79.4781 42.8764 80.0613 43.0187 80.9146 43.0187C82.9341 43.0187 84.5839 42.6347 85.8639 41.8667C87.1439 41.0987 88.0968 40.0462 88.7226 38.7093C89.3484 37.344 89.6613 35.808 89.6613 34.1013C89.6613 33.0489 89.4764 32.1244 89.1066 31.328C88.7653 30.5031 88.2106 29.8631 87.4426 29.408C86.6746 28.9244 85.6506 28.6827 84.3706 28.6827H80.7439ZM105.948 14.6453C106.033 13.5929 106.46 12.7538 107.228 12.128C107.996 11.5022 108.892 11.1893 109.916 11.1893C110.854 11.1893 111.565 11.4596 112.049 12C112.561 12.512 112.774 13.1804 112.689 14.0053C112.604 14.9724 112.177 15.7831 111.409 16.4373C110.641 17.0916 109.745 17.4187 108.721 17.4187C107.782 17.4187 107.057 17.1627 106.545 16.6507C106.061 16.1102 105.862 15.4418 105.948 14.6453ZM104.454 25.6107C104.966 24.0747 104.796 23.3067 103.942 23.3067C103.373 23.3067 102.861 23.6053 102.406 24.2027C101.951 24.7716 101.468 25.696 100.956 26.976L100.23 28.9813H99.4196L100.529 25.7813C100.956 24.6436 101.468 23.7618 102.065 23.136C102.662 22.4818 103.331 22.0267 104.07 21.7707C104.81 21.5147 105.535 21.3867 106.246 21.3867C107.242 21.3867 107.996 21.5716 108.508 21.9413C109.02 22.3111 109.361 22.7947 109.532 23.392C109.702 23.9893 109.745 24.6436 109.66 25.3547C109.574 26.0373 109.418 26.7058 109.19 27.36L104.668 40.3733C104.412 41.1413 104.34 41.7244 104.454 42.1227C104.568 42.4924 104.838 42.6773 105.265 42.6773C105.72 42.6773 106.175 42.4356 106.63 41.952C107.114 41.44 107.626 40.4587 108.166 39.008L108.892 37.088H109.702L108.636 40.2027C108.209 41.3404 107.697 42.2364 107.1 42.8907C106.502 43.5164 105.848 43.9573 105.137 44.2133C104.426 44.4693 103.729 44.5973 103.046 44.5973C101.795 44.5973 100.884 44.3271 100.316 43.7867C99.7467 43.2178 99.4623 42.4498 99.4623 41.4827C99.4623 40.4871 99.6898 39.3493 100.145 38.0693L104.454 25.6107ZM114.269 43.36C114.496 43.4738 114.738 43.5733 114.994 43.6587C115.25 43.7156 115.606 43.744 116.061 43.744C117.142 43.744 118.038 43.4027 118.749 42.72C119.488 42.0089 119.858 41.0276 119.858 39.776C119.858 38.8658 119.659 37.9413 119.261 37.0027C118.891 36.064 118.322 35.0258 117.554 33.888C116.872 32.8924 116.246 31.9111 115.677 30.944C115.136 29.9769 114.866 28.8676 114.866 27.616C114.866 26.3929 115.165 25.3262 115.762 24.416C116.36 23.4773 117.213 22.7378 118.322 22.1973C119.432 21.6569 120.726 21.3867 122.205 21.3867C123.172 21.3867 124.125 21.5004 125.064 21.728C126.002 21.9556 126.77 22.368 127.368 22.9653C127.965 23.5627 128.264 24.4302 128.264 25.568C128.264 25.9662 128.178 26.3929 128.008 26.848C127.837 27.2747 127.581 27.6444 127.24 27.9573C126.898 28.2702 126.443 28.4267 125.874 28.4267C125.277 28.4267 124.779 28.1991 124.381 27.744C123.983 27.2604 123.784 26.6489 123.784 25.9093C123.784 25.2551 123.897 24.6436 124.125 24.0747C124.381 23.5058 124.68 23.008 125.021 22.5813C124.623 22.3538 124.054 22.24 123.314 22.24C122.29 22.24 121.465 22.5671 120.84 23.2213C120.214 23.8756 119.901 24.8 119.901 25.9947C119.901 26.6204 120 27.2178 120.2 27.7867C120.427 28.3271 120.726 28.896 121.096 29.4933C121.494 30.0622 121.935 30.7307 122.418 31.4987C123.215 32.7787 123.84 33.9307 124.296 34.9547C124.751 35.9502 124.978 36.9742 124.978 38.0267C124.978 39.2782 124.637 40.4018 123.954 41.3973C123.3 42.3929 122.39 43.1751 121.224 43.744C120.057 44.3129 118.692 44.5973 117.128 44.5973C116.018 44.5973 114.952 44.4409 113.928 44.128C112.932 43.8436 112.107 43.36 111.453 42.6773C110.827 41.9947 110.514 41.056 110.514 39.8613C110.514 39.2071 110.699 38.6098 111.069 38.0693C111.41 37.5004 111.951 37.216 112.69 37.216C113.43 37.216 113.984 37.5147 114.354 38.112C114.724 38.7093 114.909 39.4489 114.909 40.3307C114.909 40.9564 114.824 41.5396 114.653 42.08C114.511 42.592 114.383 43.0187 114.269 43.36ZM145.068 21.984L144.94 22.8373H130.647L130.86 21.984H145.068ZM134.7 40.3733C134.472 41.1698 134.501 41.7529 134.785 42.1227C135.098 42.4924 135.511 42.6773 136.023 42.6773C136.62 42.6773 137.217 42.3929 137.815 41.824C138.44 41.2551 139.009 40.2596 139.521 38.8373L140.161 37.088H140.972L140.119 39.648C139.521 41.4116 138.696 42.6773 137.644 43.4453C136.591 44.2133 135.34 44.5973 133.889 44.5973C132.609 44.5973 131.628 44.3129 130.945 43.744C130.291 43.1751 129.893 42.4071 129.751 41.44C129.637 40.4444 129.765 39.3209 130.135 38.0693L136.577 15.584C137.601 15.5556 138.554 15.4987 139.436 15.4133C140.346 15.328 141.199 15.1858 141.996 14.9867L134.7 40.3733ZM148.92 44H143.672L148.792 25.6107C149.048 24.7573 149.133 24.16 149.048 23.8187C148.963 23.4773 148.707 23.3067 148.28 23.3067C147.739 23.3067 147.242 23.5769 146.787 24.1173C146.331 24.6578 145.862 25.6107 145.379 26.976L144.653 28.9813H143.843L144.952 25.7813C145.35 24.6436 145.848 23.7618 146.445 23.136C147.043 22.4818 147.697 22.0267 148.408 21.7707C149.119 21.5147 149.844 21.3867 150.584 21.3867C151.494 21.3867 152.163 21.5716 152.589 21.9413C153.044 22.3111 153.329 22.7947 153.443 23.392C153.585 23.9893 153.613 24.6436 153.528 25.3547C153.471 26.0373 153.357 26.7058 153.187 27.36L148.92 44ZM159.843 22.368C159.217 22.368 158.577 22.5956 157.923 23.0507C157.268 23.4773 156.586 24.1742 155.875 25.1413C155.163 26.1084 154.438 27.3884 153.699 28.9813C152.987 30.5458 152.248 32.4658 151.48 34.7413C150.712 36.9884 149.944 39.648 149.176 42.72L150.2 37.0453C151.082 34.0587 151.907 31.5698 152.675 29.5787C153.471 27.5591 154.239 25.952 154.979 24.7573C155.747 23.5342 156.557 22.6667 157.411 22.1547C158.264 21.6427 159.188 21.3867 160.184 21.3867C161.208 21.3867 161.99 21.6853 162.531 22.2827C163.099 22.88 163.384 23.6196 163.384 24.5013C163.384 25.2124 163.213 25.8809 162.872 26.5067C162.531 27.104 162.075 27.5876 161.507 27.9573C160.966 28.2987 160.34 28.4693 159.629 28.4693C158.918 28.4693 158.349 28.2844 157.923 27.9147C157.524 27.5449 157.325 27.0044 157.325 26.2933C157.325 25.6676 157.467 25.0987 157.752 24.5867C158.036 24.0747 158.406 23.648 158.861 23.3067C159.316 22.9369 159.814 22.6809 160.355 22.5387C160.298 22.4818 160.227 22.4391 160.141 22.4107C160.056 22.3822 159.956 22.368 159.843 22.368ZM174.822 22.24C174.082 22.24 173.329 22.624 172.561 23.392C171.793 24.1316 171.067 25.1556 170.385 26.464C169.702 27.744 169.076 29.1804 168.507 30.7733C167.967 32.3662 167.54 34.016 167.227 35.7227C166.914 37.4009 166.758 39.008 166.758 40.544C166.758 41.6818 166.9 42.5067 167.185 43.0187C167.497 43.5022 167.953 43.744 168.55 43.744C169.261 43.744 170.001 43.3742 170.769 42.6347C171.537 41.8951 172.262 40.8996 172.945 39.648C173.656 38.368 174.281 36.9458 174.822 35.3813C175.362 33.7884 175.789 32.1387 176.102 30.432C176.415 28.7253 176.571 27.0613 176.571 25.44C176.571 24.2453 176.415 23.4204 176.102 22.9653C175.817 22.4818 175.391 22.24 174.822 22.24ZM161.723 37.6853C161.723 36.4053 161.894 35.0258 162.235 33.5467C162.605 32.0676 163.145 30.6169 163.857 29.1947C164.568 27.744 165.449 26.4356 166.502 25.2693C167.583 24.0747 168.834 23.136 170.257 22.4533C171.679 21.7422 173.286 21.3867 175.078 21.3867C177.126 21.3867 178.719 21.9698 179.857 23.136C181.023 24.2738 181.606 25.9947 181.606 28.2987C181.606 29.5787 181.421 30.9582 181.051 32.4373C180.71 33.9164 180.184 35.3813 179.473 36.832C178.761 38.2542 177.865 39.5627 176.785 40.7573C175.732 41.9236 174.495 42.8622 173.073 43.5733C171.65 44.256 170.043 44.5973 168.251 44.5973C166.203 44.5973 164.596 44.0142 163.43 42.848C162.292 41.6818 161.723 39.9609 161.723 37.6853ZM211.548 13.8347C214.676 13.8347 216.952 14.3467 218.374 15.3707C219.796 16.3662 220.508 17.7173 220.508 19.424C220.508 20.9031 220.038 22.24 219.1 23.4347C218.189 24.6293 216.938 25.6391 215.345 26.464C213.752 27.2604 211.946 27.8151 209.926 28.128C212.941 28.3556 215.146 29.0951 216.54 30.3467C217.962 31.5982 218.673 33.0916 218.673 34.8267C218.673 36.3627 218.303 37.6996 217.564 38.8373C216.852 39.9751 215.871 40.928 214.62 41.696C213.396 42.464 211.96 43.0471 210.31 43.4453C208.66 43.8151 206.911 44 205.062 44C204.095 44 203.028 43.9858 201.862 43.9573C200.724 43.9004 199.316 43.872 197.638 43.872C196.927 43.872 196.188 43.8862 195.42 43.9147C194.652 43.9147 193.926 43.9289 193.244 43.9573C192.561 43.9573 191.978 43.9716 191.494 44L191.665 43.1467C192.632 43.0898 193.386 42.976 193.926 42.8053C194.467 42.6347 194.893 42.2933 195.206 41.7813C195.519 41.2693 195.804 40.5013 196.06 39.4773L201.692 18.3147C201.891 17.4613 202.004 16.7787 202.033 16.2667C202.061 15.7262 201.862 15.328 201.436 15.072C201.037 14.7876 200.284 14.6453 199.174 14.6453L199.388 13.792C199.871 13.8204 200.44 13.8489 201.094 13.8773C201.777 13.8773 202.502 13.8916 203.27 13.92C204.038 13.92 204.749 13.92 205.404 13.92C206.627 13.92 207.708 13.9058 208.646 13.8773C209.613 13.8489 210.58 13.8347 211.548 13.8347ZM203.569 28.6827L203.74 27.9573H206.897C208.518 27.9573 209.898 27.5449 211.036 26.72C212.202 25.8667 213.084 24.7573 213.681 23.392C214.307 22.0267 214.62 20.5902 214.62 19.0827C214.62 17.6604 214.335 16.5653 213.766 15.7973C213.226 15.0293 212.273 14.6453 210.908 14.6453C209.912 14.6453 209.201 14.8444 208.774 15.2427C208.348 15.6124 207.978 16.4231 207.665 17.6747L201.905 39.4773C201.734 40.1884 201.62 40.8142 201.564 41.3547C201.535 41.8951 201.677 42.3076 201.99 42.592C202.303 42.8764 202.886 43.0187 203.74 43.0187C205.759 43.0187 207.409 42.6347 208.689 41.8667C209.969 41.0987 210.922 40.0462 211.548 38.7093C212.173 37.344 212.486 35.808 212.486 34.1013C212.486 33.0489 212.301 32.1244 211.932 31.328C211.59 30.5031 211.036 29.8631 210.268 29.408C209.5 28.9244 208.476 28.6827 207.196 28.6827H203.569ZM226.554 40.3733C226.326 41.1413 226.269 41.7244 226.383 42.1227C226.525 42.4924 226.81 42.6773 227.237 42.6773C227.635 42.6773 228.061 42.4356 228.517 41.952C229 41.44 229.512 40.4587 230.053 39.008L230.735 37.088H231.546L230.479 40.2027C230.081 41.3404 229.583 42.2364 228.986 42.8907C228.389 43.5164 227.749 43.9573 227.066 44.2133C226.383 44.4693 225.686 44.5973 224.975 44.5973C224.065 44.5973 223.34 44.4267 222.799 44.0853C222.259 43.744 221.889 43.2747 221.69 42.6773C221.491 42.08 221.42 41.3973 221.477 40.6293C221.533 39.8329 221.704 38.9796 221.989 38.0693L228.773 15.5413C229.057 14.5742 229.029 13.8631 228.687 13.408C228.346 12.9529 227.478 12.7253 226.085 12.7253L226.383 11.8293C228.232 11.8009 229.882 11.6444 231.333 11.36C232.783 11.0471 234.177 10.6204 235.514 10.08L226.554 40.3733ZM240.873 14.6453C240.958 13.5929 241.385 12.7538 242.153 12.128C242.921 11.5022 243.817 11.1893 244.841 11.1893C245.779 11.1893 246.49 11.4596 246.974 12C247.486 12.512 247.699 13.1804 247.614 14.0053C247.529 14.9724 247.102 15.7831 246.334 16.4373C245.566 17.0916 244.67 17.4187 243.646 17.4187C242.707 17.4187 241.982 17.1627 241.47 16.6507C240.986 16.1102 240.787 15.4418 240.873 14.6453ZM239.379 25.6107C239.891 24.0747 239.721 23.3067 238.867 23.3067C238.298 23.3067 237.786 23.6053 237.331 24.2027C236.876 24.7716 236.393 25.696 235.881 26.976L235.155 28.9813H234.345L235.454 25.7813C235.881 24.6436 236.393 23.7618 236.99 23.136C237.587 22.4818 238.256 22.0267 238.995 21.7707C239.735 21.5147 240.46 21.3867 241.171 21.3867C242.167 21.3867 242.921 21.5716 243.433 21.9413C243.945 22.3111 244.286 22.7947 244.457 23.392C244.627 23.9893 244.67 24.6436 244.585 25.3547C244.499 26.0373 244.343 26.7058 244.115 27.36L239.593 40.3733C239.337 41.1413 239.265 41.7244 239.379 42.1227C239.493 42.4924 239.763 42.6773 240.19 42.6773C240.645 42.6773 241.1 42.4356 241.555 41.952C242.039 41.44 242.551 40.4587 243.091 39.008L243.817 37.088H244.627L243.561 40.2027C243.134 41.3404 242.622 42.2364 242.025 42.8907C241.427 43.5164 240.773 43.9573 240.062 44.2133C239.351 44.4693 238.654 44.5973 237.971 44.5973C236.72 44.5973 235.809 44.3271 235.241 43.7867C234.672 43.2178 234.387 42.4498 234.387 41.4827C234.387 40.4871 234.615 39.3493 235.07 38.0693L239.379 25.6107ZM249.194 43.36C249.421 43.4738 249.663 43.5733 249.919 43.6587C250.175 43.7156 250.531 43.744 250.986 43.744C252.067 43.744 252.963 43.4027 253.674 42.72C254.413 42.0089 254.783 41.0276 254.783 39.776C254.783 38.8658 254.584 37.9413 254.186 37.0027C253.816 36.064 253.247 35.0258 252.479 33.888C251.797 32.8924 251.171 31.9111 250.602 30.944C250.061 29.9769 249.791 28.8676 249.791 27.616C249.791 26.3929 250.09 25.3262 250.687 24.416C251.285 23.4773 252.138 22.7378 253.247 22.1973C254.357 21.6569 255.651 21.3867 257.13 21.3867C258.097 21.3867 259.05 21.5004 259.989 21.728C260.927 21.9556 261.695 22.368 262.293 22.9653C262.89 23.5627 263.189 24.4302 263.189 25.568C263.189 25.9662 263.103 26.3929 262.933 26.848C262.762 27.2747 262.506 27.6444 262.165 27.9573C261.823 28.2702 261.368 28.4267 260.799 28.4267C260.202 28.4267 259.704 28.1991 259.306 27.744C258.908 27.2604 258.709 26.6489 258.709 25.9093C258.709 25.2551 258.822 24.6436 259.05 24.0747C259.306 23.5058 259.605 23.008 259.946 22.5813C259.548 22.3538 258.979 22.24 258.239 22.24C257.215 22.24 256.39 22.5671 255.765 23.2213C255.139 23.8756 254.826 24.8 254.826 25.9947C254.826 26.6204 254.925 27.2178 255.125 27.7867C255.352 28.3271 255.651 28.896 256.021 29.4933C256.419 30.0622 256.86 30.7307 257.343 31.4987C258.14 32.7787 258.765 33.9307 259.221 34.9547C259.676 35.9502 259.903 36.9742 259.903 38.0267C259.903 39.2782 259.562 40.4018 258.879 41.3973C258.225 42.3929 257.315 43.1751 256.149 43.744C254.982 44.3129 253.617 44.5973 252.053 44.5973C250.943 44.5973 249.877 44.4409 248.853 44.128C247.857 43.8436 247.032 43.36 246.378 42.6773C245.752 41.9947 245.439 41.056 245.439 39.8613C245.439 39.2071 245.624 38.6098 245.994 38.0693C246.335 37.5004 246.876 37.216 247.615 37.216C248.355 37.216 248.909 37.5147 249.279 38.112C249.649 38.7093 249.834 39.4489 249.834 40.3307C249.834 40.9564 249.749 41.5396 249.578 42.08C249.436 42.592 249.308 43.0187 249.194 43.36ZM266.169 43.36C266.396 43.4738 266.638 43.5733 266.894 43.6587C267.15 43.7156 267.506 43.744 267.961 43.744C269.042 43.744 269.938 43.4027 270.649 42.72C271.388 42.0089 271.758 41.0276 271.758 39.776C271.758 38.8658 271.559 37.9413 271.161 37.0027C270.791 36.064 270.222 35.0258 269.454 33.888C268.772 32.8924 268.146 31.9111 267.577 30.944C267.036 29.9769 266.766 28.8676 266.766 27.616C266.766 26.3929 267.065 25.3262 267.662 24.416C268.26 23.4773 269.113 22.7378 270.222 22.1973C271.332 21.6569 272.626 21.3867 274.105 21.3867C275.072 21.3867 276.025 21.5004 276.964 21.728C277.902 21.9556 278.67 22.368 279.268 22.9653C279.865 23.5627 280.164 24.4302 280.164 25.568C280.164 25.9662 280.078 26.3929 279.908 26.848C279.737 27.2747 279.481 27.6444 279.14 27.9573C278.798 28.2702 278.343 28.4267 277.774 28.4267C277.177 28.4267 276.679 28.1991 276.281 27.744C275.883 27.2604 275.684 26.6489 275.684 25.9093C275.684 25.2551 275.797 24.6436 276.025 24.0747C276.281 23.5058 276.58 23.008 276.921 22.5813C276.523 22.3538 275.954 22.24 275.214 22.24C274.19 22.24 273.365 22.5671 272.74 23.2213C272.114 23.8756 271.801 24.8 271.801 25.9947C271.801 26.6204 271.9 27.2178 272.1 27.7867C272.327 28.3271 272.626 28.896 272.996 29.4933C273.394 30.0622 273.835 30.7307 274.318 31.4987C275.115 32.7787 275.74 33.9307 276.196 34.9547C276.651 35.9502 276.878 36.9742 276.878 38.0267C276.878 39.2782 276.537 40.4018 275.854 41.3973C275.2 42.3929 274.29 43.1751 273.124 43.744C271.957 44.3129 270.592 44.5973 269.028 44.5973C267.918 44.5973 266.852 44.4409 265.828 44.128C264.832 43.8436 264.007 43.36 263.353 42.6773C262.727 41.9947 262.414 41.056 262.414 39.8613C262.414 39.2071 262.599 38.6098 262.969 38.0693C263.31 37.5004 263.851 37.216 264.59 37.216C265.33 37.216 265.884 37.5147 266.254 38.112C266.624 38.7093 266.809 39.4489 266.809 40.3307C266.809 40.9564 266.724 41.5396 266.553 42.08C266.411 42.592 266.283 43.0187 266.169 43.36Z" fill="#474747"/>
<defs>
<clipPath id="clip0_10_2266">
<rect width="56" height="55" fill="white" transform="translate(0.5)"/>
</clipPath>
</defs>
</svg>
